# xmcd CD database file
#
# Track frame offsets:
#	150
#	15680
#	35756
#	48895
#	64486
#	84241
#	94052
#	111620
#	129359
#	151006
#	173958
#	183923
#	198926
#	213960
#	228628
#	238921
#	254248
#	263331
#	282853
#	293415
#	309623
#	323923
#
# Disc length: 4486 seconds
#
# Revision: 0
# Processed by: cddbd v1.5.2PL0 Copyright (c) Steve Scherf et al.
# Submitted via: CDex 1.79
#
DISCID=3a118416
DTITLE=Dorothy Donegan - September Song and Donnybrook With Donegan
DYEAR=1900
DGENRE=Jazz
TTITLE0=I Can't Give You Anything But Love
TTITLE1=September Song
TTITLE2=Up The Lazy River
TTITLE3=Happiness Is A Thing Called Joe
TTITLE4=St. Louis Blues
TTITLE5=Love For Sale
TTITLE6=Tenderly/Stella By Starlight
TTITLE7=Lullaby Of Birdland
TTITLE8=Dancing On The Ceiling
TTITLE9=I Get A Kick Out Of You
TTITLE10=A Foggy Day
TTITLE11=September In The Rain
TTITLE12=I've Got You Under My Skin
TTITLE13=The D.D. Blues
TTITLE14=Day In - Day Out
TTITLE15=Lover
TTITLE16=Tea For Two
TTITLE17=Moonlight In Vermont
TTITLE18=Thou Swell
TTITLE19=I Only Have Eyes For You
TTITLE20=I'll Remember April
TTITLE21=Bye Bye Blackbird
EXTD=
EXTT0=
EXTT1=
EXTT2=
EXTT3=
EXTT4=
EXTT5=
EXTT6=
EXTT7=
EXTT8=
EXTT9=
EXTT10=
EXTT11=
EXTT12=
EXTT13=
EXTT14=
EXTT15=
EXTT16=
EXTT17=
EXTT18=
EXTT19=
EXTT20=
EXTT21=
PLAYORDER=
